<svg width="36" height="32" viewBox="0 0 36 32" fill="none" xmlns="http://www.w3.org/2000/svg">
<path d="M12.8571 5.85714H23.1429V3.28571H12.8571V5.85714ZM5.78571 5.85714V31.5714H4.5C3.26786 31.5714 2.20982 31.1295 1.32589 30.2455C0.441964 29.3616 0 28.3036 0 27.0714V10.3571C0 9.125 0.441964 8.06696 1.32589 7.18303C2.20982 6.29911 3.26786 5.85714 4.5 5.85714H5.78571ZM28.2857 5.85714V31.5714H7.71429V5.85714H10.2857V2.64286C10.2857 2.10714 10.4732 1.65178 10.8482 1.27678C11.2232 0.901784 11.6786 0.714284 12.2143 0.714284H23.7857C24.3214 0.714284 24.7768 0.901784 25.1518 1.27678C25.5268 1.65178 25.7143 2.10714 25.7143 2.64286V5.85714H28.2857ZM36 10.3571V27.0714C36 28.3036 35.558 29.3616 34.6741 30.2455C33.7902 31.1295 32.7321 31.5714 31.5 31.5714H30.2143V5.85714H31.5C32.7321 5.85714 33.7902 6.29911 34.6741 7.18303C35.558 8.06696 36 9.125 36 10.3571Z" fill="#FCB117"/>
<path d="M12.8571 5.85714H23.1429V3.28571H12.8571V5.85714ZM5.78571 5.85714V31.5714H4.5C3.26786 31.5714 2.20982 31.1295 1.32589 30.2455C0.441964 29.3616 0 28.3036 0 27.0714V10.3571C0 9.125 0.441964 8.06696 1.32589 7.18303C2.20982 6.29911 3.26786 5.85714 4.5 5.85714H5.78571ZM28.2857 5.85714V31.5714H7.71429V5.85714H10.2857V2.64286C10.2857 2.10714 10.4732 1.65178 10.8482 1.27678C11.2232 0.901784 11.6786 0.714284 12.2143 0.714284H23.7857C24.3214 0.714284 24.7768 0.901784 25.1518 1.27678C25.5268 1.65178 25.7143 2.10714 25.7143 2.64286V5.85714H28.2857ZM36 10.3571V27.0714C36 28.3036 35.558 29.3616 34.6741 30.2455C33.7902 31.1295 32.7321 31.5714 31.5 31.5714H30.2143V5.85714H31.5C32.7321 5.85714 33.7902 6.29911 34.6741 7.18303C35.558 8.06696 36 9.125 36 10.3571Z" fill="url(#paint0_linear)"/>
<defs>
<linearGradient id="paint0_linear" x1="-22" y1="5" x2="58.952" y2="7.6233" gradientUnits="userSpaceOnUse">
<stop offset="0.474025" stop-color="#FF9901"/>
<stop offset="1" stop-color="white" stop-opacity="0"/>
</linearGradient>
</defs>
</svg>
