<svg width="32" height="32" viewBox="0 0 32 32" fill="none" xmlns="http://www.w3.org/2000/svg">
<path d="M16 4.72949C9.79845 4.72949 4.77519 9.76596 4.77519 15.9694C4.77519 22.1729 9.79845 27.2093 16 27.2093C22.2015 27.2093 27.2248 22.1729 27.2248 15.9694C27.2248 9.82738 22.2015 4.72949 16 4.72949ZM16 26.0424C10.4806 26.0424 5.95349 21.5587 5.95349 16.0308C5.95349 10.503 10.4806 5.9579 16 5.9579C21.5194 5.9579 26.0465 10.4416 26.0465 16.0308C26.0465 21.5587 21.5194 26.0424 16 26.0424Z" fill="#FCB117"/>
<path d="M16 4.72949C9.79845 4.72949 4.77519 9.76596 4.77519 15.9694C4.77519 22.1729 9.79845 27.2093 16 27.2093C22.2015 27.2093 27.2248 22.1729 27.2248 15.9694C27.2248 9.82738 22.2015 4.72949 16 4.72949ZM16 26.0424C10.4806 26.0424 5.95349 21.5587 5.95349 16.0308C5.95349 10.503 10.4806 5.9579 16 5.9579C21.5194 5.9579 26.0465 10.4416 26.0465 16.0308C26.0465 21.5587 21.5194 26.0424 16 26.0424Z" fill="url(#paint0_linear)"/>
<path d="M31.6279 16.7063C31.4419 16.6449 31.2558 16.5221 31.0698 16.4607C30.8837 16.3992 30.6977 16.2764 30.5116 16.215C30.5116 16.1536 30.5116 16.1536 30.5116 16.0921C30.5116 16.0307 30.5116 15.9079 30.5116 15.8464C30.6977 15.785 30.8837 15.6622 31.0698 15.6008C31.2558 15.5393 31.4419 15.4165 31.6279 15.3551C31.938 15.2322 32.062 14.8637 32 14.4952C31.938 14.3109 31.938 14.1267 31.876 13.9424C31.814 13.6967 31.814 13.5125 31.7519 13.2668C31.6899 13.0825 31.6899 12.8369 31.6279 12.6526C31.5659 12.4683 31.5659 12.2226 31.5039 11.977C31.4419 11.6084 31.1318 11.3628 30.8217 11.3628H30.5736C30.3256 11.3628 30.0155 11.3013 29.7054 11.3013C29.6434 11.1785 29.5814 11.0557 29.5814 10.8714L30.3876 10.0729C30.6357 9.88868 30.6357 9.45873 30.4496 9.15163C30.2636 8.78311 30.0155 8.41459 29.8295 8.04607C29.6434 7.67754 29.3954 7.30902 29.2093 6.9405C29.0233 6.6334 28.6512 6.44914 28.3411 6.57198L27.2868 6.81766L27.2248 6.75624C27.1628 6.69482 27.1008 6.57198 26.9767 6.51056L27.4729 5.46641C27.5969 5.22073 27.4729 4.79079 27.2248 4.60653C26.9147 4.36084 26.6047 4.05374 26.2326 3.80806C25.9225 3.56238 25.5504 3.25528 25.2403 3.0096C24.9923 2.76392 24.5581 2.76392 24.3101 2.94818L23.3799 3.6238C23.2558 3.56238 23.1318 3.43954 23.0078 3.37812L23.1318 2.27255C23.1938 1.96545 22.9457 1.65835 22.5736 1.53551L21.3954 1.10557C21.1473 1.04415 20.8992 0.921305 20.6512 0.859885L20.155 0.675624C19.845 0.552783 19.4109 0.675624 19.2868 0.921305C19.1628 1.10557 18.9767 1.35125 18.8527 1.59693C18.7907 1.71977 18.7287 1.84261 18.6047 1.90403C18.4806 1.90403 18.3566 1.84261 18.1705 1.84261C18.0465 1.41267 17.9845 1.04415 17.8605 0.675624C17.9845 0.245681 17.6744 0 17.3023 0H14.7597C14.3876 0 14.0775 0.245681 14.0155 0.491363C13.8915 0.859885 13.8295 1.28983 13.7054 1.78119C13.5814 1.78119 13.5194 1.84261 13.3954 1.84261C13.2713 1.71977 13.2093 1.53551 13.1473 1.41267C13.0233 1.16699 12.8372 0.982726 12.7132 0.737044C12.5271 0.491363 12.155 0.368522 11.845 0.491363L11.3488 0.675624C11.1008 0.737044 10.8527 0.859885 10.6047 0.921305L9.30233 1.41267C8.93024 1.53551 8.74419 1.84261 8.74419 2.14971L8.93023 3.56238C8.86822 3.6238 8.8062 3.6238 8.74419 3.68522L8.68217 3.6238C8.31008 3.3167 7.93799 3.07102 7.56589 2.82534C7.31783 2.64107 6.94574 2.7025 6.63566 2.94818C6.32558 3.19386 5.95349 3.50096 5.64341 3.74664C5.39535 3.99232 5.02326 4.29942 4.71318 4.54511C4.46512 4.79079 4.34109 5.15931 4.46512 5.46641L4.65117 5.83493C4.7752 6.08061 4.89923 6.38772 5.08527 6.69482L5.14729 6.87908C5.14729 6.87908 5.14729 6.9405 5.08527 6.9405C5.08527 6.9405 5.08527 6.9405 5.02326 7.00192L4.83721 6.9405C4.34109 6.81766 3.90698 6.69482 3.53489 6.57198C3.22481 6.44914 2.85272 6.6334 2.66667 6.9405C2.41861 7.30902 2.23256 7.67754 2.04651 8.04607C1.92248 8.23033 1.79845 8.41459 1.73644 8.59885C1.61241 8.78311 1.55039 8.96737 1.42636 9.15163C1.24031 9.45873 1.30233 9.82726 1.48838 10.0729L1.86047 10.4415C2.04651 10.6257 2.23256 10.81 2.48062 10.9942L2.72869 11.2399H2.35659C1.9845 11.2399 1.61241 11.3013 1.30233 11.3013H1.05427C0.744189 11.3013 0.496127 11.6084 0.372096 11.977C0.310081 12.1612 0.310081 12.4069 0.248065 12.5912C0.18605 12.7754 0.18605 13.0211 0.124034 13.2054C0.0620187 13.4511 0.0620187 13.6353 3.17395e-06 13.881C-0.0620123 14.0653 -0.0620123 14.2495 -0.124028 14.4952C-0.186043 14.8637 3.17395e-06 15.1708 0.248065 15.2937C0.434112 15.3551 0.620158 15.4779 0.806205 15.5393C0.992251 15.6622 1.24031 15.7236 1.48838 15.8464L1.9845 15.9693L1.67442 16.0921C1.42636 16.215 1.1783 16.2764 0.992251 16.3992C0.806205 16.4607 0.620158 16.5835 0.434112 16.6449C0.124034 16.7678 3.15905e-06 17.1363 0.0620187 17.5048C0.124034 17.6891 0.124034 17.9347 0.18605 18.119C0.248065 18.3647 0.248065 18.5489 0.310081 18.7332C0.372096 18.9175 0.372096 19.1631 0.434112 19.3474C0.496127 19.5317 0.496127 19.7774 0.558143 19.9616C0.620158 20.3301 0.930236 20.5758 1.24031 20.5758H1.67442C1.92248 20.5758 2.23256 20.6372 2.54264 20.6372H2.91473L2.66667 20.8829C2.29458 21.2514 1.9845 21.5585 1.67442 21.8042C1.42636 21.9885 1.42636 22.4184 1.61241 22.7255C1.79845 23.094 2.04651 23.4626 2.23256 23.8311C2.41861 24.1996 2.66667 24.5681 2.85272 24.9367C3.03876 25.2438 3.41086 25.428 3.65892 25.3666C4.03101 25.2438 4.46512 25.1209 4.96124 24.9981L5.33334 24.8752L5.14729 25.1823C4.89923 25.6123 4.71318 26.0422 4.52713 26.4107C4.4031 26.6564 4.46512 27.0864 4.7752 27.3321C5.08527 27.6392 5.45737 27.8848 5.76745 28.1305C6.07752 28.4376 6.44962 28.6833 6.75969 28.929C7.00775 29.1747 7.44186 29.1747 7.68993 28.9904C8 28.7447 8.3721 28.499 8.8062 28.1919L9.11628 28.0077L8.93023 29.7274C8.86822 30.0345 9.11628 30.3417 9.48838 30.4645C9.86047 30.5873 10.2946 30.7716 10.6667 30.8944C11.1008 31.0173 11.4729 31.2015 11.907 31.3244C12.2171 31.4472 12.6512 31.3244 12.7752 31.0787C13.0233 30.7716 13.2713 30.4031 13.5194 29.9731L13.7054 29.666L13.8295 30.096C13.9535 30.5259 14.0155 30.9559 14.1395 31.3244C14.2016 31.6315 14.5116 31.8772 14.8837 31.8772H17.4264C17.7985 31.8772 18.1085 31.6315 18.1705 31.3244C18.2946 30.9559 18.3566 30.5259 18.4806 30.096L18.6047 29.666V30.096C18.8527 30.5259 19.1008 30.8944 19.3488 31.2015C19.5349 31.4472 19.907 31.5701 20.2171 31.4472C20.6512 31.3244 21.0233 31.1401 21.4574 31.0173C21.8295 30.8944 22.2636 30.7102 22.6357 30.5873C23.0078 30.4645 23.1938 30.1574 23.1318 29.8503L23.0698 29.3589C23.0698 29.1132 23.0078 28.8061 23.0078 28.5605V28.2534H23.0698L23.3178 28.4376C23.6899 28.7447 24.062 28.9904 24.4341 29.2361C24.6822 29.4203 25.0543 29.3589 25.3643 29.1747C25.6744 28.929 26.0465 28.6219 26.3566 28.3762C26.6667 28.1305 27.0388 27.8234 27.3488 27.5163C27.5969 27.2706 27.7209 26.9021 27.5969 26.6564V26.595C27.4109 26.2265 27.2248 25.858 27.0388 25.428L26.9767 25.3052L27.0388 25.2438L27.1008 25.1823L27.2248 25.2438C27.7209 25.3666 28.155 25.4894 28.5271 25.6123C28.8372 25.6737 29.2093 25.4894 29.3333 25.1823C29.5194 24.8138 29.7674 24.4453 29.9535 24.0768C30.2016 23.7083 30.3876 23.3397 30.5736 22.9712C30.7597 22.6641 30.6977 22.2342 30.5116 22.0499C30.2016 21.8042 29.8915 21.4971 29.5194 21.1286L29.6434 20.8829C29.9535 20.8829 30.2636 20.8215 30.5116 20.8215H30.9457C31.2558 20.8215 31.5039 20.5144 31.6279 20.1459C31.6899 19.9616 31.6899 19.7159 31.7519 19.5317C31.814 19.3474 31.814 19.1017 31.876 18.9175C31.938 18.7332 31.938 18.4875 32 18.3033C32.062 18.119 32.062 17.8733 32.124 17.6891C32.062 17.1363 31.876 16.8292 31.6279 16.7063ZM16 27.8234C9.48837 27.8234 4.15504 22.5413 4.15504 16.0307C4.15504 9.52015 9.48837 4.17658 16 4.17658C22.5116 4.17658 27.845 9.45873 27.845 16.0307C27.845 22.5413 22.5116 27.8234 16 27.8234Z" fill="#FCB117"/>
<path d="M31.6279 16.7063C31.4419 16.6449 31.2558 16.5221 31.0698 16.4607C30.8837 16.3992 30.6977 16.2764 30.5116 16.215C30.5116 16.1536 30.5116 16.1536 30.5116 16.0921C30.5116 16.0307 30.5116 15.9079 30.5116 15.8464C30.6977 15.785 30.8837 15.6622 31.0698 15.6008C31.2558 15.5393 31.4419 15.4165 31.6279 15.3551C31.938 15.2322 32.062 14.8637 32 14.4952C31.938 14.3109 31.938 14.1267 31.876 13.9424C31.814 13.6967 31.814 13.5125 31.7519 13.2668C31.6899 13.0825 31.6899 12.8369 31.6279 12.6526C31.5659 12.4683 31.5659 12.2226 31.5039 11.977C31.4419 11.6084 31.1318 11.3628 30.8217 11.3628H30.5736C30.3256 11.3628 30.0155 11.3013 29.7054 11.3013C29.6434 11.1785 29.5814 11.0557 29.5814 10.8714L30.3876 10.0729C30.6357 9.88868 30.6357 9.45873 30.4496 9.15163C30.2636 8.78311 30.0155 8.41459 29.8295 8.04607C29.6434 7.67754 29.3954 7.30902 29.2093 6.9405C29.0233 6.6334 28.6512 6.44914 28.3411 6.57198L27.2868 6.81766L27.2248 6.75624C27.1628 6.69482 27.1008 6.57198 26.9767 6.51056L27.4729 5.46641C27.5969 5.22073 27.4729 4.79079 27.2248 4.60653C26.9147 4.36084 26.6047 4.05374 26.2326 3.80806C25.9225 3.56238 25.5504 3.25528 25.2403 3.0096C24.9923 2.76392 24.5581 2.76392 24.3101 2.94818L23.3799 3.6238C23.2558 3.56238 23.1318 3.43954 23.0078 3.37812L23.1318 2.27255C23.1938 1.96545 22.9457 1.65835 22.5736 1.53551L21.3954 1.10557C21.1473 1.04415 20.8992 0.921305 20.6512 0.859885L20.155 0.675624C19.845 0.552783 19.4109 0.675624 19.2868 0.921305C19.1628 1.10557 18.9767 1.35125 18.8527 1.59693C18.7907 1.71977 18.7287 1.84261 18.6047 1.90403C18.4806 1.90403 18.3566 1.84261 18.1705 1.84261C18.0465 1.41267 17.9845 1.04415 17.8605 0.675624C17.9845 0.245681 17.6744 0 17.3023 0H14.7597C14.3876 0 14.0775 0.245681 14.0155 0.491363C13.8915 0.859885 13.8295 1.28983 13.7054 1.78119C13.5814 1.78119 13.5194 1.84261 13.3954 1.84261C13.2713 1.71977 13.2093 1.53551 13.1473 1.41267C13.0233 1.16699 12.8372 0.982726 12.7132 0.737044C12.5271 0.491363 12.155 0.368522 11.845 0.491363L11.3488 0.675624C11.1008 0.737044 10.8527 0.859885 10.6047 0.921305L9.30233 1.41267C8.93024 1.53551 8.74419 1.84261 8.74419 2.14971L8.93023 3.56238C8.86822 3.6238 8.8062 3.6238 8.74419 3.68522L8.68217 3.6238C8.31008 3.3167 7.93799 3.07102 7.56589 2.82534C7.31783 2.64107 6.94574 2.7025 6.63566 2.94818C6.32558 3.19386 5.95349 3.50096 5.64341 3.74664C5.39535 3.99232 5.02326 4.29942 4.71318 4.54511C4.46512 4.79079 4.34109 5.15931 4.46512 5.46641L4.65117 5.83493C4.7752 6.08061 4.89923 6.38772 5.08527 6.69482L5.14729 6.87908C5.14729 6.87908 5.14729 6.9405 5.08527 6.9405C5.08527 6.9405 5.08527 6.9405 5.02326 7.00192L4.83721 6.9405C4.34109 6.81766 3.90698 6.69482 3.53489 6.57198C3.22481 6.44914 2.85272 6.6334 2.66667 6.9405C2.41861 7.30902 2.23256 7.67754 2.04651 8.04607C1.92248 8.23033 1.79845 8.41459 1.73644 8.59885C1.61241 8.78311 1.55039 8.96737 1.42636 9.15163C1.24031 9.45873 1.30233 9.82726 1.48838 10.0729L1.86047 10.4415C2.04651 10.6257 2.23256 10.81 2.48062 10.9942L2.72869 11.2399H2.35659C1.9845 11.2399 1.61241 11.3013 1.30233 11.3013H1.05427C0.744189 11.3013 0.496127 11.6084 0.372096 11.977C0.310081 12.1612 0.310081 12.4069 0.248065 12.5912C0.18605 12.7754 0.18605 13.0211 0.124034 13.2054C0.0620187 13.4511 0.0620187 13.6353 3.17395e-06 13.881C-0.0620123 14.0653 -0.0620123 14.2495 -0.124028 14.4952C-0.186043 14.8637 3.17395e-06 15.1708 0.248065 15.2937C0.434112 15.3551 0.620158 15.4779 0.806205 15.5393C0.992251 15.6622 1.24031 15.7236 1.48838 15.8464L1.9845 15.9693L1.67442 16.0921C1.42636 16.215 1.1783 16.2764 0.992251 16.3992C0.806205 16.4607 0.620158 16.5835 0.434112 16.6449C0.124034 16.7678 3.15905e-06 17.1363 0.0620187 17.5048C0.124034 17.6891 0.124034 17.9347 0.18605 18.119C0.248065 18.3647 0.248065 18.5489 0.310081 18.7332C0.372096 18.9175 0.372096 19.1631 0.434112 19.3474C0.496127 19.5317 0.496127 19.7774 0.558143 19.9616C0.620158 20.3301 0.930236 20.5758 1.24031 20.5758H1.67442C1.92248 20.5758 2.23256 20.6372 2.54264 20.6372H2.91473L2.66667 20.8829C2.29458 21.2514 1.9845 21.5585 1.67442 21.8042C1.42636 21.9885 1.42636 22.4184 1.61241 22.7255C1.79845 23.094 2.04651 23.4626 2.23256 23.8311C2.41861 24.1996 2.66667 24.5681 2.85272 24.9367C3.03876 25.2438 3.41086 25.428 3.65892 25.3666C4.03101 25.2438 4.46512 25.1209 4.96124 24.9981L5.33334 24.8752L5.14729 25.1823C4.89923 25.6123 4.71318 26.0422 4.52713 26.4107C4.4031 26.6564 4.46512 27.0864 4.7752 27.3321C5.08527 27.6392 5.45737 27.8848 5.76745 28.1305C6.07752 28.4376 6.44962 28.6833 6.75969 28.929C7.00775 29.1747 7.44186 29.1747 7.68993 28.9904C8 28.7447 8.3721 28.499 8.8062 28.1919L9.11628 28.0077L8.93023 29.7274C8.86822 30.0345 9.11628 30.3417 9.48838 30.4645C9.86047 30.5873 10.2946 30.7716 10.6667 30.8944C11.1008 31.0173 11.4729 31.2015 11.907 31.3244C12.2171 31.4472 12.6512 31.3244 12.7752 31.0787C13.0233 30.7716 13.2713 30.4031 13.5194 29.9731L13.7054 29.666L13.8295 30.096C13.9535 30.5259 14.0155 30.9559 14.1395 31.3244C14.2016 31.6315 14.5116 31.8772 14.8837 31.8772H17.4264C17.7985 31.8772 18.1085 31.6315 18.1705 31.3244C18.2946 30.9559 18.3566 30.5259 18.4806 30.096L18.6047 29.666V30.096C18.8527 30.5259 19.1008 30.8944 19.3488 31.2015C19.5349 31.4472 19.907 31.5701 20.2171 31.4472C20.6512 31.3244 21.0233 31.1401 21.4574 31.0173C21.8295 30.8944 22.2636 30.7102 22.6357 30.5873C23.0078 30.4645 23.1938 30.1574 23.1318 29.8503L23.0698 29.3589C23.0698 29.1132 23.0078 28.8061 23.0078 28.5605V28.2534H23.0698L23.3178 28.4376C23.6899 28.7447 24.062 28.9904 24.4341 29.2361C24.6822 29.4203 25.0543 29.3589 25.3643 29.1747C25.6744 28.929 26.0465 28.6219 26.3566 28.3762C26.6667 28.1305 27.0388 27.8234 27.3488 27.5163C27.5969 27.2706 27.7209 26.9021 27.5969 26.6564V26.595C27.4109 26.2265 27.2248 25.858 27.0388 25.428L26.9767 25.3052L27.0388 25.2438L27.1008 25.1823L27.2248 25.2438C27.7209 25.3666 28.155 25.4894 28.5271 25.6123C28.8372 25.6737 29.2093 25.4894 29.3333 25.1823C29.5194 24.8138 29.7674 24.4453 29.9535 24.0768C30.2016 23.7083 30.3876 23.3397 30.5736 22.9712C30.7597 22.6641 30.6977 22.2342 30.5116 22.0499C30.2016 21.8042 29.8915 21.4971 29.5194 21.1286L29.6434 20.8829C29.9535 20.8829 30.2636 20.8215 30.5116 20.8215H30.9457C31.2558 20.8215 31.5039 20.5144 31.6279 20.1459C31.6899 19.9616 31.6899 19.7159 31.7519 19.5317C31.814 19.3474 31.814 19.1017 31.876 18.9175C31.938 18.7332 31.938 18.4875 32 18.3033C32.062 18.119 32.062 17.8733 32.124 17.6891C32.062 17.1363 31.876 16.8292 31.6279 16.7063ZM16 27.8234C9.48837 27.8234 4.15504 22.5413 4.15504 16.0307C4.15504 9.52015 9.48837 4.17658 16 4.17658C22.5116 4.17658 27.845 9.45873 27.845 16.0307C27.845 22.5413 22.5116 27.8234 16 27.8234Z" fill="url(#paint1_linear)"/>
<path d="M18.2946 13.144C17.5504 12.6527 17.3643 11.24 16.9923 8.47608C16.9302 8.04614 16.8682 7.6162 16.8062 7.12483C16.8062 7.00199 16.6822 6.87915 16.4961 6.87915C16.4341 6.87915 16.3721 6.87915 16.3101 6.87915C16.124 6.87915 16 6.87915 15.814 6.87915C15.7519 6.87915 15.6899 6.87915 15.6279 6.87915C15.5039 6.87915 15.3798 7.00199 15.3178 7.12483C15.2558 7.6162 15.1938 8.04614 15.1318 8.47608C14.6977 11.24 14.5116 12.5912 13.8295 13.144C13.1473 13.6354 11.7209 13.4511 8.99225 12.9598C8.62016 12.8983 8.18605 12.8369 7.75194 12.7755C7.62791 12.7755 7.50388 12.8369 7.44186 12.9598C7.31783 13.3283 7.25582 13.6354 7.1938 13.8811C7.1938 14.0039 7.25582 14.1268 7.31783 14.1882C7.68993 14.3724 8.06202 14.5567 8.3721 14.741C10.8527 15.9694 12.093 16.5836 12.4031 17.4435C12.6512 18.3033 12.031 19.5317 10.7907 21.9886L10.3566 22.8484C10.2946 22.9713 10.3566 23.0941 10.4186 23.217C10.6667 23.4012 10.9767 23.6469 11.2868 23.8312C11.4109 23.8926 11.5349 23.8926 11.6589 23.7697L12.3411 23.0941C14.2636 21.1287 15.2558 20.1459 16.124 20.1459C16.9923 20.1459 17.9845 21.1287 19.907 23.0941L20.5891 23.7697C20.6512 23.8312 20.7132 23.8312 20.7752 23.8312C20.8372 23.8312 20.8992 23.8312 20.9612 23.7697C21.2713 23.5855 21.5194 23.4012 21.8295 23.1555C21.9535 23.0941 21.9535 22.9099 21.8915 22.787L21.4574 21.9271C20.155 19.4703 19.5349 18.2419 19.845 17.382C20.093 16.5221 21.3954 15.9079 23.876 14.6795C24.186 14.4953 24.5581 14.311 24.9302 14.1268C25.0543 14.0653 25.1163 13.9425 25.0543 13.8197C24.9923 13.5125 24.9302 13.2669 24.8062 12.8983C24.7442 12.7755 24.6202 12.6527 24.4961 12.7141C24.062 12.7755 23.6899 12.8369 23.2558 12.8983C20.3411 13.3897 18.9767 13.6354 18.2946 13.144Z" fill="#FCB117"/>
<path d="M18.2946 13.144C17.5504 12.6527 17.3643 11.24 16.9923 8.47608C16.9302 8.04614 16.8682 7.6162 16.8062 7.12483C16.8062 7.00199 16.6822 6.87915 16.4961 6.87915C16.4341 6.87915 16.3721 6.87915 16.3101 6.87915C16.124 6.87915 16 6.87915 15.814 6.87915C15.7519 6.87915 15.6899 6.87915 15.6279 6.87915C15.5039 6.87915 15.3798 7.00199 15.3178 7.12483C15.2558 7.6162 15.1938 8.04614 15.1318 8.47608C14.6977 11.24 14.5116 12.5912 13.8295 13.144C13.1473 13.6354 11.7209 13.4511 8.99225 12.9598C8.62016 12.8983 8.18605 12.8369 7.75194 12.7755C7.62791 12.7755 7.50388 12.8369 7.44186 12.9598C7.31783 13.3283 7.25582 13.6354 7.1938 13.8811C7.1938 14.0039 7.25582 14.1268 7.31783 14.1882C7.68993 14.3724 8.06202 14.5567 8.3721 14.741C10.8527 15.9694 12.093 16.5836 12.4031 17.4435C12.6512 18.3033 12.031 19.5317 10.7907 21.9886L10.3566 22.8484C10.2946 22.9713 10.3566 23.0941 10.4186 23.217C10.6667 23.4012 10.9767 23.6469 11.2868 23.8312C11.4109 23.8926 11.5349 23.8926 11.6589 23.7697L12.3411 23.0941C14.2636 21.1287 15.2558 20.1459 16.124 20.1459C16.9923 20.1459 17.9845 21.1287 19.907 23.0941L20.5891 23.7697C20.6512 23.8312 20.7132 23.8312 20.7752 23.8312C20.8372 23.8312 20.8992 23.8312 20.9612 23.7697C21.2713 23.5855 21.5194 23.4012 21.8295 23.1555C21.9535 23.0941 21.9535 22.9099 21.8915 22.787L21.4574 21.9271C20.155 19.4703 19.5349 18.2419 19.845 17.382C20.093 16.5221 21.3954 15.9079 23.876 14.6795C24.186 14.4953 24.5581 14.311 24.9302 14.1268C25.0543 14.0653 25.1163 13.9425 25.0543 13.8197C24.9923 13.5125 24.9302 13.2669 24.8062 12.8983C24.7442 12.7755 24.6202 12.6527 24.4961 12.7141C24.062 12.7755 23.6899 12.8369 23.2558 12.8983C20.3411 13.3897 18.9767 13.6354 18.2946 13.144Z" fill="url(#paint2_linear)"/>
<defs>
<linearGradient id="paint0_linear" x1="4.77519" y1="4.72949" x2="27.512" y2="5.02382" gradientUnits="userSpaceOnUse">
<stop offset="0.474025" stop-color="#FF9901"/>
<stop offset="1" stop-color="white" stop-opacity="0"/>
</linearGradient>
<linearGradient id="paint1_linear" x1="-0.136047" y1="0" x2="32.5366" y2="0.428599" gradientUnits="userSpaceOnUse">
<stop offset="0.474025" stop-color="#FF9901"/>
<stop offset="1" stop-color="white" stop-opacity="0"/>
</linearGradient>
<linearGradient id="paint2_linear" x1="7.1938" y1="6.87915" x2="25.3071" y2="7.12627" gradientUnits="userSpaceOnUse">
<stop offset="0.474025" stop-color="#FF9901"/>
<stop offset="1" stop-color="white" stop-opacity="0"/>
</linearGradient>
</defs>
</svg>
