<svg width="30" height="40" viewBox="0 0 30 40" fill="none" xmlns="http://www.w3.org/2000/svg">
<path d="M2.89916 10.7077C3.78151 10.7077 4.53782 10.7077 5.42017 10.7077C5.54622 10.7077 5.67227 10.8308 5.79832 10.9538C6.55462 12.5538 7.81513 13.4154 9.70588 13.4154C9.95798 13.4154 9.95798 13.5385 10.084 13.6615C10.3361 14.2769 10.4622 14.8923 10.7143 15.3846C10.9664 15.8769 10.9664 16.4923 10.9664 17.1077C10.9664 21.5385 10.9664 26.0923 10.9664 30.5231C10.9664 33.2308 13.4874 35.2 16.0084 34.4615C17.8992 33.9692 19.0336 32.3692 19.1597 30.5231C19.1597 26.5846 19.1597 22.6462 19.1597 18.7077C19.1597 16.9846 19.2857 15.2615 20.042 13.6615C20.1681 13.4154 20.2941 13.2923 20.5462 13.2923C22.8151 13.2923 24.7059 11.5692 24.7059 9.23077C24.7059 7.50769 24.7059 5.78462 24.7059 4.06154C24.7059 1.72308 22.9412 0 20.5462 0C16.8908 0 13.2353 0 9.70588 0C7.94118 0 6.68067 0.861538 5.92437 2.33846C5.67227 2.58462 5.67227 2.70769 5.42017 2.70769C4.53782 2.70769 3.65546 2.70769 2.77311 2.70769C1.63866 2.70769 0.756303 3.2 0.252101 4.18462C0.12605 4.43077 0.12605 4.67692 0 4.92308C0 6.15385 0 7.26154 0 8.49231C0 8.49231 0 8.61539 0.12605 8.61539C0.504202 9.96923 1.38655 10.7077 2.89916 10.7077Z" fill="#FCB117"/>
<path d="M2.89916 10.7077C3.78151 10.7077 4.53782 10.7077 5.42017 10.7077C5.54622 10.7077 5.67227 10.8308 5.79832 10.9538C6.55462 12.5538 7.81513 13.4154 9.70588 13.4154C9.95798 13.4154 9.95798 13.5385 10.084 13.6615C10.3361 14.2769 10.4622 14.8923 10.7143 15.3846C10.9664 15.8769 10.9664 16.4923 10.9664 17.1077C10.9664 21.5385 10.9664 26.0923 10.9664 30.5231C10.9664 33.2308 13.4874 35.2 16.0084 34.4615C17.8992 33.9692 19.0336 32.3692 19.1597 30.5231C19.1597 26.5846 19.1597 22.6462 19.1597 18.7077C19.1597 16.9846 19.2857 15.2615 20.042 13.6615C20.1681 13.4154 20.2941 13.2923 20.5462 13.2923C22.8151 13.2923 24.7059 11.5692 24.7059 9.23077C24.7059 7.50769 24.7059 5.78462 24.7059 4.06154C24.7059 1.72308 22.9412 0 20.5462 0C16.8908 0 13.2353 0 9.70588 0C7.94118 0 6.68067 0.861538 5.92437 2.33846C5.67227 2.58462 5.67227 2.70769 5.42017 2.70769C4.53782 2.70769 3.65546 2.70769 2.77311 2.70769C1.63866 2.70769 0.756303 3.2 0.252101 4.18462C0.12605 4.43077 0.12605 4.67692 0 4.92308C0 6.15385 0 7.26154 0 8.49231C0 8.49231 0 8.61539 0.12605 8.61539C0.504202 9.96923 1.38655 10.7077 2.89916 10.7077Z" fill="url(#paint0_linear)"/>
<path d="M30 21.2923C30 19.4462 29.1176 17.9693 27.605 16.8616C26.7227 16.2462 25.7143 15.877 24.5798 15.877C23.8235 15.877 23.3193 16.4923 23.3193 17.2308C23.3193 17.9693 23.9496 18.4616 24.5798 18.5846C26.5966 18.8308 27.3529 20.1846 27.3529 21.6616C27.3529 25.8462 27.3529 30.1539 27.3529 34.3385C27.3529 36.0616 26.2185 37.1693 24.4538 37.1693C22.1849 37.1693 19.916 37.1693 17.6471 37.1693C13.6134 37.1693 9.70588 37.1693 5.67227 37.1693C4.03361 37.1693 2.77311 36.0616 2.77311 34.5846C2.77311 30.1539 2.77311 25.6 2.77311 21.1693C2.77311 19.9385 3.65546 18.9539 4.91597 18.7077C5.16807 18.7077 5.29412 18.5846 5.54622 18.5846C6.30252 18.5846 6.80672 17.9693 6.80672 17.2308C6.80672 16.4923 6.17647 15.877 5.42017 15.877C5.42017 15.877 5.42017 15.877 5.29412 15.877C3.15126 15.877 0.882353 17.477 0.252101 19.5693C0.12605 19.9385 0.12605 20.1846 0 20.5539C0 25.477 0 30.277 0 35.2C0 35.4462 0.12605 35.6923 0.12605 35.8154C0.630252 37.9077 2.52101 39.5077 4.78992 39.7539C4.91597 39.7539 4.91597 39.7539 5.04202 39.877C11.7227 39.877 18.2773 39.877 24.958 39.877C25.084 39.877 25.084 39.877 25.2101 39.7539C27.9832 39.3846 30 37.1693 30 34.4616C30 30.1539 30 25.7231 30 21.2923Z" fill="#FCB117"/>
<path d="M30 21.2923C30 19.4462 29.1176 17.9693 27.605 16.8616C26.7227 16.2462 25.7143 15.877 24.5798 15.877C23.8235 15.877 23.3193 16.4923 23.3193 17.2308C23.3193 17.9693 23.9496 18.4616 24.5798 18.5846C26.5966 18.8308 27.3529 20.1846 27.3529 21.6616C27.3529 25.8462 27.3529 30.1539 27.3529 34.3385C27.3529 36.0616 26.2185 37.1693 24.4538 37.1693C22.1849 37.1693 19.916 37.1693 17.6471 37.1693C13.6134 37.1693 9.70588 37.1693 5.67227 37.1693C4.03361 37.1693 2.77311 36.0616 2.77311 34.5846C2.77311 30.1539 2.77311 25.6 2.77311 21.1693C2.77311 19.9385 3.65546 18.9539 4.91597 18.7077C5.16807 18.7077 5.29412 18.5846 5.54622 18.5846C6.30252 18.5846 6.80672 17.9693 6.80672 17.2308C6.80672 16.4923 6.17647 15.877 5.42017 15.877C5.42017 15.877 5.42017 15.877 5.29412 15.877C3.15126 15.877 0.882353 17.477 0.252101 19.5693C0.12605 19.9385 0.12605 20.1846 0 20.5539C0 25.477 0 30.277 0 35.2C0 35.4462 0.12605 35.6923 0.12605 35.8154C0.630252 37.9077 2.52101 39.5077 4.78992 39.7539C4.91597 39.7539 4.91597 39.7539 5.04202 39.877C11.7227 39.877 18.2773 39.877 24.958 39.877C25.084 39.877 25.084 39.877 25.2101 39.7539C27.9832 39.3846 30 37.1693 30 34.4616C30 30.1539 30 25.7231 30 21.2923Z" fill="url(#paint1_linear)"/>
<path d="M6.80672 32C6.05042 32 5.42017 32.6154 5.42017 33.3538C5.42017 34.0923 6.05042 34.7077 6.80672 34.7077C7.56302 34.7077 8.19328 34.0923 8.19328 33.3538C8.19328 32.6154 7.56302 32 6.80672 32Z" fill="#FCB117"/>
<path d="M6.80672 32C6.05042 32 5.42017 32.6154 5.42017 33.3538C5.42017 34.0923 6.05042 34.7077 6.80672 34.7077C7.56302 34.7077 8.19328 34.0923 8.19328 33.3538C8.19328 32.6154 7.56302 32 6.80672 32Z" fill="url(#paint2_linear)"/>
<path d="M8.19328 22.6461C8.19328 21.9077 7.56302 21.2923 6.80672 21.2923C6.05042 21.2923 5.42017 21.9077 5.42017 22.6461C5.42017 23.3846 6.05042 24 6.80672 24C7.56302 24 8.19328 23.3846 8.19328 22.6461Z" fill="#FCB117"/>
<path d="M8.19328 22.6461C8.19328 21.9077 7.56302 21.2923 6.80672 21.2923C6.05042 21.2923 5.42017 21.9077 5.42017 22.6461C5.42017 23.3846 6.05042 24 6.80672 24C7.56302 24 8.19328 23.3846 8.19328 22.6461Z" fill="url(#paint3_linear)"/>
<path d="M6.80672 26.7077C6.05042 26.7077 5.42017 27.3231 5.42017 28.0615C5.42017 28.8 6.05042 29.4154 6.80672 29.4154C7.56302 29.4154 8.19328 28.8 8.19328 28.0615C8.19328 27.3231 7.56302 26.7077 6.80672 26.7077Z" fill="#FCB117"/>
<path d="M6.80672 26.7077C6.05042 26.7077 5.42017 27.3231 5.42017 28.0615C5.42017 28.8 6.05042 29.4154 6.80672 29.4154C7.56302 29.4154 8.19328 28.8 8.19328 28.0615C8.19328 27.3231 7.56302 26.7077 6.80672 26.7077Z" fill="url(#paint4_linear)"/>
<defs>
<linearGradient id="paint0_linear" x1="0" y1="0" x2="25.024" y2="0.231492" gradientUnits="userSpaceOnUse">
<stop offset="0.474025" stop-color="#FF9901"/>
<stop offset="1" stop-color="white" stop-opacity="0"/>
</linearGradient>
<linearGradient id="paint1_linear" x1="0" y1="15.877" x2="30.3809" y2="16.3692" gradientUnits="userSpaceOnUse">
<stop offset="0.474025" stop-color="#FF9901"/>
<stop offset="1" stop-color="white" stop-opacity="0"/>
</linearGradient>
<linearGradient id="paint2_linear" x1="5.42017" y1="32" x2="8.22873" y2="32.0373" gradientUnits="userSpaceOnUse">
<stop offset="0.474025" stop-color="#FF9901"/>
<stop offset="1" stop-color="white" stop-opacity="0"/>
</linearGradient>
<linearGradient id="paint3_linear" x1="5.42017" y1="21.2923" x2="8.22873" y2="21.3296" gradientUnits="userSpaceOnUse">
<stop offset="0.474025" stop-color="#FF9901"/>
<stop offset="1" stop-color="white" stop-opacity="0"/>
</linearGradient>
<linearGradient id="paint4_linear" x1="5.42017" y1="26.7077" x2="8.22873" y2="26.745" gradientUnits="userSpaceOnUse">
<stop offset="0.474025" stop-color="#FF9901"/>
<stop offset="1" stop-color="white" stop-opacity="0"/>
</linearGradient>
</defs>
</svg>
