<svg width="32" height="32" viewBox="0 0 32 32" fill="none" xmlns="http://www.w3.org/2000/svg">
<path d="M16 0C7.168 0 0 7.1746 0 16C0 24.8254 7.168 32 16 32C24.832 32 32 24.8254 32 16C32 7.1746 24.832 0 16 0ZM3.136 20.5079L4.288 19.4921C5.568 18.4127 7.104 18.9841 8.064 20C8.96 21.0159 9.408 22.6667 8.192 23.8095C8.192 23.8095 8.192 23.8095 8.128 23.873L6.208 25.5238C4.864 24.127 3.84 22.4127 3.136 20.5079ZM21.184 28.6349C19.584 29.2698 17.856 29.6508 16 29.6508C14.144 29.6508 12.352 29.2698 10.752 28.5714V27.2381C10.752 25.3968 13.376 24.4444 15.936 24.4444C17.344 24.4444 18.624 24.6984 19.584 25.2063C20.288 25.5873 21.12 26.2222 21.12 27.2381V28.6349H21.184ZM25.728 25.5238L23.808 23.873C23.808 23.873 23.808 23.873 23.744 23.8095C22.528 22.6667 22.912 21.0794 23.872 20C24.768 18.9841 26.368 18.3492 27.648 19.4921L28.8 20.5714C28.16 22.4127 27.072 24.127 25.728 25.5238ZM16 12.1905C10.944 12.1905 6.144 14.0952 2.496 17.5238C2.432 17.0159 2.432 16.5714 2.432 16.0635C2.368 8.50794 8.512 2.4127 16 2.4127C23.488 2.4127 29.568 8.50794 29.568 16.0635C29.568 16.5714 29.568 17.0159 29.504 17.5238C25.792 14.0317 21.056 12.1905 16 12.1905Z" fill="#FCB117"/>
<path d="M16 0C7.168 0 0 7.1746 0 16C0 24.8254 7.168 32 16 32C24.832 32 32 24.8254 32 16C32 7.1746 24.832 0 16 0ZM3.136 20.5079L4.288 19.4921C5.568 18.4127 7.104 18.9841 8.064 20C8.96 21.0159 9.408 22.6667 8.192 23.8095C8.192 23.8095 8.192 23.8095 8.128 23.873L6.208 25.5238C4.864 24.127 3.84 22.4127 3.136 20.5079ZM21.184 28.6349C19.584 29.2698 17.856 29.6508 16 29.6508C14.144 29.6508 12.352 29.2698 10.752 28.5714V27.2381C10.752 25.3968 13.376 24.4444 15.936 24.4444C17.344 24.4444 18.624 24.6984 19.584 25.2063C20.288 25.5873 21.12 26.2222 21.12 27.2381V28.6349H21.184ZM25.728 25.5238L23.808 23.873C23.808 23.873 23.808 23.873 23.744 23.8095C22.528 22.6667 22.912 21.0794 23.872 20C24.768 18.9841 26.368 18.3492 27.648 19.4921L28.8 20.5714C28.16 22.4127 27.072 24.127 25.728 25.5238ZM16 12.1905C10.944 12.1905 6.144 14.0952 2.496 17.5238C2.432 17.0159 2.432 16.5714 2.432 16.0635C2.368 8.50794 8.512 2.4127 16 2.4127C23.488 2.4127 29.568 8.50794 29.568 16.0635C29.568 16.5714 29.568 17.0159 29.504 17.5238C25.792 14.0317 21.056 12.1905 16 12.1905Z" fill="url(#paint0_linear)"/>
<defs>
<linearGradient id="paint0_linear" x1="0" y1="0" x2="32.4093" y2="0.420099" gradientUnits="userSpaceOnUse">
<stop offset="0.474025" stop-color="#FF9901"/>
<stop offset="1" stop-color="white" stop-opacity="0"/>
</linearGradient>
</defs>
</svg>
